<svg width="22" height="23" viewBox="0 0 22 23" fill="none" xmlns="http://www.w3.org/2000/svg">
<path id="Vector" d="M20.7903 18.1569V11.3674C20.7903 10.7135 20.7897 10.3864 20.7102 10.0821C20.6397 9.81243 20.5241 9.55724 20.3675 9.32665C20.1909 9.06644 19.9453 8.85066 19.4532 8.42005L13.579 3.28016C12.6653 2.48068 12.2085 2.08114 11.6943 1.92909C11.2413 1.79512 10.7584 1.79512 10.3054 1.92909C9.79164 2.08103 9.33546 2.48018 8.42315 3.27846L2.54704 8.42005C2.05491 8.85066 1.80942 9.06644 1.63278 9.32665C1.47625 9.55725 1.35969 9.81243 1.28923 10.0821C1.20972 10.3864 1.20972 10.7135 1.20972 11.3674V18.1569C1.20972 19.2973 1.20972 19.8673 1.39603 20.3171C1.64444 20.9168 2.1206 21.3939 2.72033 21.6423C3.17012 21.8286 3.74033 21.8286 4.88075 21.8286C6.02118 21.8286 6.59202 21.8286 7.04181 21.6423C7.64154 21.3939 8.11757 20.9169 8.36599 20.3172C8.5523 19.8674 8.55242 19.2972 8.55242 18.1568V16.933C8.55242 15.5812 9.64824 14.4854 11 14.4854C12.3517 14.4854 13.4476 15.5812 13.4476 16.933V18.1568C13.4476 19.2972 13.4476 19.8674 13.6339 20.3172C13.8823 20.9169 14.3584 21.3939 14.9582 21.6423C15.408 21.8286 15.9782 21.8286 17.1186 21.8286C18.259 21.8286 18.8299 21.8286 19.2797 21.6423C19.8794 21.3939 20.3554 20.9168 20.6038 20.3171C20.7901 19.8673 20.7903 19.2973 20.7903 18.1569Z" fill="#11453B" stroke="#11453B" stroke-width="2" stroke-linecap="round" stroke-linejoin="round"/>
</svg>
